<svg viewBox="0 0 90.68 35.312" xmlns="http://www.w3.org/2000/svg"><g fill="#fff" transform="translate(-21.74 -41)"><path d="m110.76 47.66-.82-2.37v2.38h-.43v-2.85h.66l.79 2.26.81-2.26h.65v2.84h-.42v-2.37l-.85 2.37z"/><path d="m25.14 47.64c-2.26 0-3.4-1.06-3.4-3.17s1.15-3.22 3.44-3.22 3.39 1.07 3.44 3.22-1.15 3.17-3.44 3.17zm-3.36 20.3v-18.39h6.76v18.39z"/><path d="m32.32 67.94v-13.46h-2.32v-4.93h2.35v-.55a9.34 9.34 0 0 1 .56-3.21 6.75 6.75 0 0 1 4.45-4.34 9.16 9.16 0 0 1 2.7-.45 14.09 14.09 0 0 1 3.1.34l-.11 5.15a8.449 8.449 0 0 0 -1.72-.18 2.06 2.06 0 0 0 -2.33 2.34v.9h3.36v4.93h-3.28v13.46z"/><path d="m48.47 47.64q-3.4 0-3.4-3.17t3.43-3.22c2.25 0 3.39 1.07 3.44 3.22s-1.14 3.17-3.44 3.17zm-3.37 20.3v-18.39h6.77v18.39z"/><path d="m54.82 55.83v-3.44l-.11-2.84h5.79l.3 2.35h.11a6.879 6.879 0 0 1 .71-.86 8.67 8.67 0 0 1 1.16-.89 6.81 6.81 0 0 1 3.66-1q6.66 0 6.66 8v10.79h-6.77v-10c0-2.24-.78-3.36-2.35-3.36a2.19 2.19 0 0 0 -1.5.52 3.74 3.74 0 0 0 -.71 1.09 3.59 3.59 0 0 0 -.18 1.34v10.41h-6.77z"/><path d="m82.7 49.36h.3a5.06 5.06 0 0 1 4.64 2.43 9.06 9.06 0 0 0 .27-1.87v-.11h5.8c-.1 1.32-.15 3-.15 5v10.51c0 4.09-.9 6.9-2.69 8.45s-4.42 2.54-8.11 2.54a16 16 0 0 1 -6.76-1.38l1.3-5.12a11.75 11.75 0 0 0 5.38 1.35 3.81 3.81 0 0 0 4-2.73 6.21 6.21 0 0 0 .21-1.43v-9.64a3 3 0 0 0 -1.2-2.5 2.59 2.59 0 0 0 -1.34-.38 2.63 2.63 0 0 0 -2.73 2.17 8.53 8.53 0 0 0 -.26 2.35c0 2 .67 3.35 2 4a2.54 2.54 0 0 0 1 .18h.07a3.49 3.49 0 0 0 .68-.07v4.3a5.58 5.58 0 0 1 -2.73.59h-.26a7.28 7.28 0 0 1 -6.47-3.73 10.39 10.39 0 0 1 -1.23-4.94v-.45a10 10 0 0 1 3-7.4 7.85 7.85 0 0 1 5.28-2.12z"/><path d="m95.37 62.08a9.81 9.81 0 0 0 5.09 1.35c1.34 0 2-.33 2-1s-.79-1-2.39-1.53a9.19 9.19 0 0 1 -4.26-2.4 4.35 4.35 0 0 1 -1.16-3.06 5.38 5.38 0 0 1 2.17-4.4 9.25 9.25 0 0 1 5.83-1.74 15.23 15.23 0 0 1 3.14.33 11.36 11.36 0 0 1 2.32.69l-1.11 4.45a12.3 12.3 0 0 0 -1.79-.65 9.21 9.21 0 0 0 -2.28-.33q-1.83 0-1.83 1c0 .51.92 1 2.77 1.64q5 1.56 5 5.52a5.17 5.17 0 0 1 -2 4.3 10.33 10.33 0 0 1 -6.34 1.75 14 14 0 0 1 -6.32-1.28z"/><path d="m108.27 47.66h-.47v-2.44h-.8v-.4h2.13v.4h-.83z"/></g></svg>